<svg width="25" height="25" viewBox="0 0 25 25" fill="none" xmlns="http://www.w3.org/2000/svg">
<path fill-rule="evenodd" clip-rule="evenodd" d="M12.4999 8.13953C9.95646 8.13953 7.89453 10.0918 7.89453 12.5C7.89453 14.9082 9.95646 16.8605 12.4999 16.8605C15.0435 16.8605 17.1054 14.9082 17.1054 12.5C17.1054 10.0918 15.0435 8.13953 12.4999 8.13953ZM9.7367 12.5C9.7367 11.0551 10.9739 9.88371 12.4999 9.88371C14.026 9.88371 15.2632 11.0551 15.2632 12.5C15.2632 13.9449 14.026 15.1163 12.4999 15.1163C10.9739 15.1163 9.7367 13.9449 9.7367 12.5Z" fill="white" fill-opacity="0.67"/>
<path fill-rule="evenodd" clip-rule="evenodd" d="M12.4689 4.93928e-07C11.9231 -1.1134e-05 11.4674 -1.11889e-05 11.0933 0.0241516C10.7039 0.0493144 10.3361 0.103547 9.97943 0.243407C9.1519 0.567954 8.49442 1.19045 8.15164 1.97398C7.9732 2.38188 7.92487 2.81177 7.90641 3.27902C7.89158 3.65464 7.69137 3.96804 7.3959 4.12955C7.10044 4.29106 6.71369 4.29852 6.3627 4.12288C5.92608 3.90438 5.50871 3.72906 5.04638 3.67143C4.15833 3.56073 3.2602 3.78859 2.54958 4.30487C2.24333 4.52736 2.0098 4.80186 1.79208 5.10861C1.58292 5.40327 1.35509 5.77692 1.08217 6.2245L1.05116 6.27536C0.778222 6.72293 0.550383 7.09656 0.385436 7.41538C0.213733 7.74729 0.0794146 8.07604 0.0290252 8.43838C-0.087891 9.27921 0.15277 10.1296 0.698039 10.8024C0.98188 11.1526 1.35087 11.4072 1.76896 11.6559C2.1052 11.8559 2.29178 12.1769 2.29176 12.5C2.29175 12.823 2.10516 13.144 1.76896 13.344C1.35082 13.5927 0.981794 13.8473 0.697928 14.1976C0.152647 14.8703 -0.0880016 15.7207 0.0289023 16.5615C0.0792918 16.9238 0.21361 17.2527 0.385313 17.5845C0.55026 17.9034 0.7781 18.277 1.05102 18.7245L1.08204 18.7755C1.35497 19.223 1.58279 19.5966 1.79195 19.8913C2.00967 20.198 2.24321 20.4726 2.54945 20.695C3.26008 21.2113 4.15821 21.4392 5.04625 21.3285C5.50856 21.2708 5.92591 21.0956 6.36251 20.8771C6.71354 20.7014 7.10034 20.7088 7.39584 20.8705C7.69135 21.032 7.89158 21.3453 7.90641 21.721C7.92487 22.1883 7.97321 22.6181 8.15164 23.026C8.49442 23.8095 9.1519 24.4321 9.97943 24.7566C10.3361 24.8965 10.7039 24.9507 11.0933 24.9758C11.4674 25 11.9231 25 12.4689 25H12.5309C13.0768 25 13.5325 25 13.9067 24.9758C14.2961 24.9507 14.6639 24.8965 15.0206 24.7566C15.8481 24.4321 16.5056 23.8095 16.8484 23.026C17.0268 22.6181 17.0751 22.1883 17.0935 21.7209C17.1084 21.3453 17.3085 21.032 17.604 20.8703C17.8995 20.7088 18.2864 20.7014 18.6374 20.877C19.074 21.0955 19.4913 21.2708 19.9536 21.3284C20.8417 21.4391 21.7398 21.2113 22.4504 20.695C22.7567 20.4724 22.9902 20.198 23.2079 19.8913C23.417 19.5966 23.6449 19.223 23.9177 18.7755L23.9488 18.7245C24.2217 18.277 24.4496 17.9033 24.6146 17.5844C24.7863 17.2526 24.9205 16.9238 24.971 16.5615C25.0879 15.7206 24.8472 14.8702 24.3019 14.1974C24.0181 13.8472 23.649 13.5927 23.231 13.344C22.8947 13.144 22.7082 12.823 22.7082 12.4999C22.7082 12.1769 22.8947 11.856 23.2309 11.656C23.6492 11.4073 24.0182 11.1528 24.302 10.8024C24.8473 10.1296 25.088 9.27929 24.9711 8.43847C24.9206 8.07612 24.7864 7.74737 24.6147 7.41547C24.4498 7.09666 24.2219 6.72306 23.9489 6.27552L23.918 6.22463C23.645 5.77704 23.4172 5.40335 23.208 5.10869C22.9903 4.80194 22.7568 4.52744 22.4505 4.30494C21.7399 3.78867 20.8418 3.56081 19.9536 3.67151C19.4914 3.72914 19.0741 3.90444 18.6375 4.12293C18.2865 4.29859 17.8996 4.29112 17.6041 4.12958C17.3087 3.96806 17.1084 3.65462 17.0935 3.27897C17.0751 2.81172 17.0268 2.38186 16.8484 1.97398C16.5056 1.19045 15.8481 0.567954 15.0206 0.243407C14.6639 0.103547 14.2961 0.0493144 13.9067 0.0241516C13.5325 -1.11889e-05 13.0768 -1.1134e-05 12.5309 4.93928e-07H12.4689ZM10.6844 1.85483C10.7792 1.81766 10.9231 1.7834 11.2187 1.76429C11.5227 1.74466 11.9152 1.74419 12.5 1.74419C13.0848 1.74419 13.4773 1.74466 13.7812 1.76429C14.0769 1.7834 14.2208 1.81766 14.3155 1.85483C14.6917 2.00235 14.9906 2.2853 15.1463 2.64145C15.1956 2.75379 15.2362 2.92892 15.2527 3.34415C15.289 4.26552 15.7913 5.15266 16.6831 5.64009C17.5747 6.12754 18.6374 6.09581 19.4983 5.66498C19.8862 5.47081 20.0669 5.41665 20.1941 5.40078C20.5978 5.35047 21.006 5.45404 21.329 5.6887C21.4104 5.74781 21.5137 5.84871 21.679 6.08158C21.849 6.32097 22.0456 6.64256 22.338 7.12209C22.6304 7.60164 22.8263 7.9237 22.9603 8.18271C23.0906 8.43468 23.1313 8.56985 23.1447 8.66613C23.1978 9.04832 23.0884 9.43485 22.8406 9.74067C22.7623 9.83715 22.6226 9.95813 22.2508 10.1792C21.4264 10.6698 20.8661 11.5251 20.866 12.4999C20.866 13.4748 21.4263 14.3302 22.2508 14.8208C22.6225 15.0419 22.7622 15.1628 22.8404 15.2593C23.0883 15.5651 23.1977 15.9516 23.1445 16.3338C23.1311 16.4301 23.0905 16.5652 22.9602 16.8172C22.8262 17.0762 22.6303 17.3983 22.3379 17.8778C22.0455 18.3573 21.8489 18.679 21.6789 18.9184C21.5136 19.1512 21.4103 19.2521 21.3289 19.3112C21.0059 19.5459 20.5977 19.6494 20.194 19.5992C20.0668 19.5833 19.8861 19.5291 19.4981 19.335C18.6372 18.9041 17.5746 18.8724 16.6828 19.3599C15.7913 19.8473 15.289 20.7344 15.2527 21.6558C15.2362 22.071 15.1956 22.2462 15.1463 22.3586C14.9906 22.7146 14.6917 22.9977 14.3155 23.1452C14.2208 23.1823 14.0769 23.2166 13.7812 23.2357C13.4773 23.2553 13.0848 23.2558 12.5 23.2558C11.9152 23.2558 11.5227 23.2553 11.2187 23.2357C10.9231 23.2166 10.7792 23.1823 10.6844 23.1452C10.3083 22.9977 10.0094 22.7146 9.85359 22.3586C9.80444 22.2462 9.7637 22.071 9.74729 21.6558C9.7109 20.7345 9.20862 19.8473 8.31692 19.3599C7.42524 18.8724 6.36265 18.9042 5.5017 19.335C5.1137 19.5292 4.93314 19.5834 4.80581 19.5992C4.40215 19.6495 3.99391 19.5459 3.6709 19.3113C3.58953 19.2522 3.48621 19.1513 3.32092 18.9184C3.15101 18.6791 2.95433 18.3574 2.66191 17.8779C2.36949 17.3984 2.17368 17.0763 2.03968 16.8173C1.90933 16.5653 1.8687 16.4301 1.85531 16.3338C1.80217 15.9516 1.91156 15.5651 2.15942 15.2593C2.2376 15.1629 2.37742 15.0419 2.74903 14.8208C3.57356 14.3303 4.13388 13.4749 4.13393 12.5001C4.13399 11.5251 3.57365 10.6697 2.74905 10.1791C2.37752 9.95801 2.23771 9.83706 2.15953 9.74059C1.91168 9.43477 1.8023 9.04824 1.85544 8.66605C1.86882 8.56978 1.90945 8.43459 2.0398 8.18264C2.1738 7.92362 2.36961 7.60156 2.66202 7.12201C2.95445 6.64248 3.15112 6.32088 3.32104 6.0815C3.48633 5.84864 3.58965 5.74773 3.67101 5.68863C3.99403 5.45395 4.40227 5.35038 4.80592 5.4007C4.93327 5.41657 5.11384 5.47073 5.50188 5.66493C6.36279 6.09576 7.42533 6.12747 8.31697 5.64006C9.20863 5.15265 9.7109 4.26555 9.74729 3.34421C9.7637 2.92894 9.80444 2.7538 9.85359 2.64145C10.0094 2.2853 10.3083 2.00235 10.6844 1.85483Z" fill="white" fill-opacity="0.67"/>
</svg>
